<svg width="361" height="136" viewBox="0 0 361 136" fill="none" xmlns="http://www.w3.org/2000/svg">
<path d="M81.73 91.1422V92.2751H77.948V104.762H76.5851V92.2751H72.7861V91.1422H81.73Z" fill="#F15A60"/>
<path d="M98.3486 99.9669H89.5239C89.5665 100.776 89.7539 101.458 90.1117 102.028C90.4609 102.599 90.9209 103.033 91.4916 103.323C92.0623 103.613 92.6841 103.766 93.3656 103.766C94.2514 103.766 94.9925 103.553 95.5973 103.119C96.202 102.693 96.6024 102.113 96.7983 101.381H98.2378C97.9738 102.42 97.4201 103.263 96.5683 103.919C95.7165 104.575 94.6518 104.899 93.3656 104.899C92.369 104.899 91.4661 104.677 90.6739 104.226C89.8817 103.774 89.2599 103.144 88.817 102.318C88.3655 101.492 88.144 100.529 88.144 99.4217C88.144 98.3144 88.3655 97.3518 88.8084 96.5171C89.2514 95.6823 89.8647 95.052 90.6568 94.6091C91.449 94.1661 92.3519 93.9447 93.3656 93.9447C94.3792 93.9447 95.2651 94.1661 96.0232 94.6091C96.7813 95.052 97.369 95.6483 97.7779 96.3893C98.1867 97.1389 98.3912 97.9652 98.3912 98.8766C98.3912 99.3621 98.3741 99.7199 98.3486 99.9669ZM96.5257 96.8322C96.1935 96.2701 95.7421 95.8527 95.1714 95.5631C94.6007 95.282 93.9788 95.1372 93.2974 95.1372C92.2838 95.1372 91.4235 95.4609 90.708 96.1082C89.9925 96.7556 89.6006 97.6755 89.5154 98.851H96.9942C97.0198 98.0674 96.8579 97.3944 96.5257 96.8322Z" fill="#F15A60"/>
<path d="M105.793 96.5512C106.236 95.7249 106.85 95.0861 107.625 94.6432C108.4 94.1917 109.294 93.9702 110.291 93.9702C111.603 93.9702 112.684 94.2939 113.536 94.9413C114.388 95.5886 114.933 96.4745 115.18 97.5904H113.715C113.536 96.8237 113.144 96.2275 112.54 95.7931C111.935 95.3586 111.185 95.1372 110.291 95.1372C109.575 95.1372 108.936 95.299 108.366 95.6227C107.795 95.9464 107.344 96.4319 107.011 97.0708C106.679 97.7096 106.517 98.5018 106.517 99.4388C106.517 100.376 106.679 101.168 107.011 101.815C107.344 102.463 107.795 102.948 108.366 103.28C108.936 103.604 109.575 103.766 110.291 103.766C111.185 103.766 111.935 103.544 112.54 103.11C113.144 102.676 113.536 102.071 113.715 101.287H115.18C114.933 102.377 114.379 103.255 113.528 103.919C112.667 104.584 111.594 104.916 110.291 104.916C109.294 104.916 108.4 104.694 107.625 104.243C106.85 103.791 106.236 103.161 105.793 102.335C105.35 101.509 105.129 100.546 105.129 99.4388C105.129 98.3399 105.35 97.3774 105.793 96.5512Z" fill="#F15A60"/>
<path d="M129.797 94.4387C130.436 94.7794 130.947 95.2905 131.313 95.989C131.679 96.6874 131.867 97.5307 131.867 98.5273V104.762H130.521V98.6806C130.521 97.5222 130.231 96.6448 129.652 96.0315C129.073 95.4182 128.281 95.1116 127.284 95.1116C126.262 95.1116 125.436 95.4353 124.831 96.0827C124.218 96.73 123.92 97.684 123.92 98.9447V104.745H122.557V90.333H123.92V95.9378C124.26 95.299 124.754 94.805 125.41 94.4557C126.066 94.1065 126.799 93.9276 127.625 93.9276C128.434 93.9276 129.158 94.098 129.797 94.4387Z" fill="#F15A60"/>
<path d="M151.731 104.43C151.049 104.115 150.513 103.681 150.121 103.127C149.729 102.573 149.525 101.943 149.499 101.253H150.939C151.007 101.917 151.296 102.497 151.816 102.999C152.336 103.502 153.094 103.749 154.099 103.749C155.019 103.749 155.751 103.51 156.288 103.042C156.824 102.565 157.097 101.969 157.097 101.236C157.097 100.648 156.944 100.18 156.646 99.8221C156.347 99.4643 155.973 99.2002 155.538 99.0214C155.095 98.8425 154.491 98.6551 153.707 98.4507C152.795 98.2037 152.08 97.9652 151.543 97.7266C151.007 97.4967 150.555 97.1304 150.18 96.6364C149.806 96.1423 149.618 95.4779 149.618 94.6261C149.618 93.9276 149.797 93.2973 150.163 92.7436C150.53 92.19 151.041 91.7641 151.705 91.4489C152.37 91.1337 153.128 90.9804 153.988 90.9804C155.249 90.9804 156.262 91.2871 157.037 91.9089C157.813 92.5222 158.255 93.3229 158.375 94.2939H156.893C156.799 93.7317 156.492 93.2377 155.973 92.8033C155.453 92.3688 154.755 92.1474 153.869 92.1474C153.051 92.1474 152.37 92.3688 151.824 92.8033C151.279 93.2377 151.007 93.8339 151.007 94.5835C151.007 95.1542 151.16 95.6142 151.458 95.9634C151.756 96.3127 152.131 96.5767 152.574 96.7641C153.025 96.943 153.63 97.1389 154.397 97.3519C155.283 97.5989 155.998 97.8459 156.543 98.0844C157.089 98.3229 157.548 98.6892 157.923 99.1832C158.298 99.6773 158.485 100.342 158.485 101.168C158.485 101.807 158.315 102.412 157.983 102.982C157.642 103.553 157.148 104.013 156.484 104.362C155.819 104.711 155.027 104.89 154.107 104.89C153.204 104.899 152.412 104.737 151.731 104.43Z" fill="#F15A60"/>
<path d="M167.94 104.243C167.14 103.791 166.509 103.161 166.049 102.335C165.589 101.509 165.359 100.546 165.359 99.4388C165.359 98.3314 165.589 97.3689 166.058 96.5427C166.526 95.7164 167.165 95.0776 167.966 94.6346C168.775 94.1832 169.669 93.9617 170.675 93.9617C171.68 93.9617 172.583 94.1832 173.392 94.6346C174.201 95.0861 174.84 95.7164 175.3 96.5427C175.76 97.3689 175.99 98.3314 175.99 99.4388C175.99 100.529 175.76 101.492 175.291 102.318C174.823 103.153 174.184 103.791 173.366 104.234C172.549 104.686 171.637 104.907 170.641 104.907C169.635 104.916 168.741 104.694 167.94 104.243ZM172.591 103.255C173.187 102.94 173.673 102.454 174.039 101.815C174.405 101.176 174.593 100.384 174.593 99.4473C174.593 98.5103 174.414 97.7267 174.048 97.0793C173.681 96.4404 173.204 95.9549 172.608 95.6398C172.012 95.3246 171.365 95.1628 170.658 95.1628C169.959 95.1628 169.303 95.3246 168.707 95.6398C168.111 95.9549 167.634 96.4404 167.276 97.0793C166.918 97.7181 166.739 98.5103 166.739 99.4473C166.739 100.384 166.918 101.168 167.276 101.815C167.634 102.454 168.111 102.94 168.698 103.255C169.286 103.57 169.934 103.732 170.641 103.732C171.339 103.732 171.986 103.57 172.591 103.255Z" fill="#F15A60"/>
<path d="M184.721 90.3416V104.754H183.358V90.3416H184.721Z" fill="#F15A60"/>
<path d="M201.91 94.1235V104.762H200.547V102.888C200.232 103.553 199.755 104.055 199.108 104.405C198.46 104.754 197.728 104.933 196.927 104.933C195.658 104.933 194.619 104.541 193.81 103.757C193 102.974 192.6 101.832 192.6 100.342V94.1235H193.946V100.18C193.946 101.338 194.236 102.216 194.815 102.829C195.394 103.442 196.186 103.749 197.183 103.749C198.213 103.749 199.023 103.425 199.636 102.778C200.249 102.13 200.556 101.176 200.556 99.9157V94.132H201.91V94.1235Z" fill="#F15A60"/>
<path d="M211.663 95.2735V101.875C211.663 102.522 211.783 102.974 212.03 103.221C212.277 103.468 212.711 103.587 213.333 103.587H214.576V104.754H213.111C212.149 104.754 211.433 104.533 210.965 104.081C210.496 103.63 210.266 102.897 210.266 101.866V95.265H208.784V94.115H210.266V91.4489H211.646V94.115H214.568V95.265H211.663V95.2735Z" fill="#F15A60"/>
<path d="M221.68 91.8237C221.484 91.6278 221.391 91.3893 221.391 91.0997C221.391 90.81 221.484 90.58 221.68 90.3927C221.876 90.2053 222.106 90.1116 222.379 90.1116C222.651 90.1116 222.89 90.2053 223.077 90.3927C223.273 90.58 223.367 90.8186 223.367 91.0997C223.367 91.3808 223.273 91.6278 223.077 91.8237C222.881 92.0196 222.651 92.1133 222.379 92.1133C222.106 92.1133 221.876 92.0196 221.68 91.8237ZM223.06 94.1235V104.762H221.697V94.1235H223.06Z" fill="#F15A60"/>
<path d="M232.984 104.243C232.183 103.791 231.553 103.161 231.093 102.335C230.633 101.509 230.403 100.546 230.403 99.4388C230.403 98.3314 230.633 97.3689 231.101 96.5427C231.57 95.7164 232.2 95.0776 233.009 94.6346C233.819 94.1832 234.713 93.9617 235.718 93.9617C236.715 93.9617 237.626 94.1832 238.435 94.6346C239.244 95.0861 239.883 95.7164 240.343 96.5427C240.803 97.3689 241.033 98.3314 241.033 99.4388C241.033 100.529 240.795 101.492 240.335 102.318C239.866 103.153 239.227 103.791 238.41 104.234C237.592 104.686 236.681 104.907 235.684 104.907C234.687 104.907 233.784 104.694 232.984 104.243ZM237.635 103.255C238.231 102.94 238.716 102.454 239.091 101.815C239.457 101.176 239.645 100.384 239.645 99.4473C239.645 98.5103 239.466 97.7267 239.1 97.0793C238.733 96.4404 238.256 95.9549 237.66 95.6398C237.064 95.3246 236.417 95.1628 235.71 95.1628C235.003 95.1628 234.364 95.3246 233.759 95.6398C233.163 95.9549 232.686 96.4404 232.328 97.0793C231.97 97.7181 231.791 98.5103 231.791 99.4473C231.791 100.384 231.97 101.168 232.328 101.815C232.686 102.454 233.154 102.94 233.75 103.255C234.338 103.57 234.985 103.732 235.692 103.732C236.399 103.732 237.038 103.57 237.635 103.255Z" fill="#F15A60"/>
<path d="M256.51 95.1116C257.319 95.8952 257.72 97.0367 257.72 98.5273V104.762H256.374V98.6806C256.374 97.5222 256.084 96.6448 255.505 96.0315C254.926 95.4182 254.134 95.1116 253.137 95.1116C252.115 95.1116 251.297 95.4353 250.684 96.0827C250.071 96.73 249.773 97.684 249.773 98.9447V104.745H248.41V94.1065H249.773V95.9378C250.113 95.2905 250.599 94.7879 251.229 94.4472C251.859 94.1065 252.583 93.9276 253.393 93.9276C254.662 93.9276 255.701 94.3194 256.51 95.1116Z" fill="#F15A60"/>
<path d="M266.28 104.073C265.505 103.51 265.079 102.735 264.985 101.764H266.391C266.459 102.36 266.74 102.846 267.234 103.212C267.737 103.579 268.41 103.766 269.253 103.766C269.994 103.766 270.573 103.587 270.999 103.238C271.416 102.889 271.629 102.454 271.629 101.935C271.629 101.568 271.51 101.27 271.28 101.04C271.042 100.81 270.752 100.623 270.394 100.486C270.036 100.35 269.551 100.205 268.946 100.052C268.154 99.8476 267.515 99.6347 267.021 99.4303C266.527 99.2258 266.11 98.9107 265.76 98.5018C265.42 98.093 265.241 97.5478 265.241 96.8578C265.241 96.3382 265.394 95.8612 265.709 95.4183C266.025 94.9754 266.459 94.6261 267.038 94.3706C267.617 94.1151 268.256 93.9788 268.989 93.9788C270.13 93.9788 271.05 94.2684 271.757 94.8476C272.456 95.4268 272.83 96.219 272.89 97.2326H271.527C271.493 96.6108 271.246 96.1083 270.795 95.7249C270.343 95.3416 269.73 95.1457 268.955 95.1457C268.265 95.1457 267.711 95.3076 267.277 95.6313C266.851 95.9549 266.638 96.3553 266.638 96.8408C266.638 97.2582 266.766 97.5989 267.021 97.863C267.277 98.127 267.592 98.34 267.967 98.4848C268.341 98.6381 268.853 98.7999 269.483 98.9788C270.249 99.1832 270.863 99.3877 271.314 99.5836C271.766 99.7795 272.157 100.061 272.481 100.444C272.805 100.819 272.975 101.321 272.992 101.943C272.992 102.514 272.839 103.025 272.524 103.468C272.209 103.919 271.774 104.268 271.22 104.533C270.667 104.797 270.019 104.924 269.295 104.924C268.043 104.916 267.047 104.635 266.28 104.073Z" fill="#F15A60"/>
<path d="M80.6395 126.432C80.6395 127.242 80.7928 127.804 81.0995 128.127C81.4061 128.451 81.9342 128.613 82.6838 128.613H83.4249V130.538H82.3686C81.7554 130.538 81.2102 130.419 80.7247 130.18C80.2392 129.942 79.8558 129.601 79.5833 129.158C78.74 130.078 77.573 130.538 76.0994 130.538C75.2135 130.538 74.4384 130.359 73.7655 130.01C73.0926 129.661 72.5645 129.175 72.1982 128.545C71.8319 127.923 71.6445 127.199 71.6445 126.364C71.6445 124.959 72.1811 123.86 73.2544 123.059C74.3277 122.258 75.7928 121.858 77.6497 121.858H80.648V126.432H80.6395ZM74.464 128.008C74.8643 128.408 75.418 128.613 76.1165 128.613C76.8405 128.613 77.4112 128.383 77.8201 127.931C78.2289 127.48 78.4334 126.85 78.4334 126.04V123.8H77.5986C76.3805 123.8 75.4521 124.022 74.8132 124.465C74.1744 124.908 73.8592 125.546 73.8592 126.39C73.8592 127.063 74.0636 127.608 74.464 128.008ZM74.6258 120.325C74.3958 120.086 74.2766 119.805 74.2766 119.482C74.2766 119.141 74.3958 118.86 74.6258 118.621C74.8558 118.391 75.1369 118.272 75.4606 118.272C75.8013 118.272 76.0824 118.391 76.3209 118.621C76.5509 118.851 76.6701 119.141 76.6701 119.482C76.6701 119.805 76.5509 120.086 76.3209 120.325C76.0909 120.563 75.8013 120.683 75.4606 120.683C75.1369 120.683 74.8558 120.563 74.6258 120.325ZM78.033 120.325C77.803 120.086 77.6838 119.805 77.6838 119.482C77.6838 119.141 77.803 118.86 78.033 118.621C78.263 118.383 78.5441 118.272 78.8678 118.272C79.2085 118.272 79.4981 118.391 79.7366 118.621C79.9751 118.851 80.0943 119.141 80.0943 119.482C80.0943 119.805 79.9751 120.086 79.7366 120.325C79.4981 120.563 79.2085 120.683 78.8678 120.683C78.5441 120.683 78.263 120.563 78.033 120.325Z" fill="#F15A60"/>
<path d="M82.8457 128.613H91.2189V130.538H82.8457V128.613Z" fill="#F15A60"/>
<path d="M90.6313 128.613H99.0045V130.538H90.6313V128.613Z" fill="#F15A60"/>
<path d="M98.4248 128.613H106.798V130.538H98.4248V128.613Z" fill="#F15A60"/>
<path d="M111.654 126.023C111.654 126.696 111.722 127.224 111.858 127.599C111.994 127.974 112.224 128.238 112.548 128.391C112.872 128.545 113.323 128.613 113.911 128.613H114.907V130.538H112.982C111.849 130.538 111.057 130.095 110.589 129.209C110.299 129.703 109.899 130.044 109.379 130.24C108.86 130.436 108.059 130.529 106.986 130.529H106.228V128.604H107.199C107.786 128.604 108.238 128.528 108.57 128.374C108.902 128.221 109.132 127.948 109.26 127.574C109.388 127.199 109.456 126.679 109.456 126.015V122.897C109.456 122.557 109.567 122.301 109.78 122.131C109.992 121.952 110.274 121.867 110.623 121.867C110.802 121.867 110.989 121.884 111.185 121.926C111.381 121.969 111.534 122.02 111.654 122.08V126.023ZM108.033 133.962C107.803 133.724 107.684 133.443 107.684 133.119C107.684 132.778 107.803 132.497 108.033 132.259C108.263 132.029 108.553 131.909 108.894 131.909C109.234 131.909 109.515 132.029 109.754 132.259C109.984 132.489 110.103 132.778 110.103 133.119C110.103 133.443 109.984 133.724 109.754 133.962C109.524 134.201 109.234 134.32 108.894 134.32C108.553 134.32 108.263 134.201 108.033 133.962ZM111.441 133.962C111.211 133.724 111.091 133.443 111.091 133.119C111.091 132.778 111.211 132.497 111.441 132.259C111.671 132.029 111.96 131.909 112.301 131.909C112.642 131.909 112.923 132.029 113.161 132.259C113.391 132.489 113.51 132.778 113.51 133.119C113.51 133.443 113.391 133.724 113.161 133.962C112.931 134.201 112.642 134.32 112.301 134.32C111.96 134.32 111.671 134.201 111.441 133.962Z" fill="#F15A60"/>
<path d="M114.32 128.613H122.693V130.538H114.32V128.613Z" fill="#F15A60"/>
<path d="M127.548 126.023C127.548 126.696 127.616 127.224 127.752 127.599C127.889 127.974 128.119 128.238 128.442 128.391C128.766 128.545 129.218 128.613 129.805 128.613H130.802V130.538H128.877C127.744 130.538 126.952 130.095 126.483 129.209C126.194 129.703 125.793 130.044 125.274 130.24C124.754 130.436 123.953 130.529 122.88 130.529H122.122V128.604H123.093C123.681 128.604 124.132 128.528 124.465 128.374C124.797 128.221 125.027 127.948 125.154 127.574C125.282 127.199 125.35 126.679 125.35 126.015V122.897C125.35 122.557 125.461 122.301 125.674 122.131C125.887 121.952 126.168 121.867 126.517 121.867C126.696 121.867 126.884 121.884 127.08 121.926C127.275 121.969 127.429 122.02 127.548 122.08V126.023ZM125.597 120.282C125.35 120.044 125.231 119.763 125.231 119.439C125.231 119.115 125.359 118.834 125.597 118.596C125.844 118.357 126.134 118.238 126.475 118.238C126.815 118.238 127.097 118.357 127.335 118.596C127.565 118.834 127.684 119.115 127.684 119.439C127.684 119.763 127.565 120.044 127.335 120.282C127.105 120.521 126.815 120.64 126.475 120.64C126.143 120.64 125.844 120.521 125.597 120.282Z" fill="#F15A60"/>
<path d="M130.214 128.613H138.587V130.538H130.214V128.613Z" fill="#F15A60"/>
<path d="M141.049 123.928C141.466 123.272 142.02 122.753 142.727 122.361C143.426 121.969 144.209 121.773 145.061 121.773C145.93 121.773 146.713 121.969 147.42 122.361C148.119 122.753 148.681 123.272 149.098 123.928C149.516 124.584 149.72 125.316 149.72 126.117C149.72 127.139 149.405 127.974 148.766 128.613H152.156V130.538H138.017V128.613H141.39C140.751 127.974 140.436 127.148 140.436 126.117C140.427 125.316 140.632 124.584 141.049 123.928ZM142.531 120.325C142.301 120.086 142.182 119.805 142.182 119.482C142.182 119.141 142.301 118.86 142.531 118.621C142.761 118.383 143.042 118.272 143.366 118.272C143.707 118.272 143.988 118.391 144.226 118.621C144.456 118.851 144.575 119.141 144.575 119.482C144.575 119.805 144.456 120.086 144.226 120.325C143.996 120.563 143.707 120.683 143.366 120.683C143.042 120.683 142.761 120.563 142.531 120.325ZM145.061 123.664C144.363 123.664 143.775 123.894 143.315 124.354C142.855 124.814 142.625 125.41 142.625 126.134C142.625 126.85 142.855 127.446 143.315 127.923C143.775 128.4 144.354 128.647 145.061 128.647C145.759 128.647 146.347 128.408 146.816 127.923C147.284 127.446 147.514 126.841 147.514 126.134C147.514 125.419 147.284 124.831 146.816 124.362C146.347 123.894 145.759 123.664 145.061 123.664ZM145.938 120.325C145.708 120.086 145.589 119.805 145.589 119.482C145.589 119.141 145.708 118.86 145.938 118.621C146.168 118.383 146.449 118.272 146.773 118.272C147.114 118.272 147.403 118.391 147.642 118.621C147.88 118.851 148 119.141 148 119.482C148 119.805 147.88 120.086 147.642 120.325C147.403 120.563 147.114 120.683 146.773 120.683C146.449 120.683 146.168 120.563 145.938 120.325Z" fill="#F15A60"/>
<path d="M151.569 128.613H159.942V130.538H151.569V128.613Z" fill="#F15A60"/>
<path d="M164.797 126.023C164.797 126.696 164.865 127.224 165.001 127.599C165.138 127.974 165.368 128.238 165.691 128.391C166.015 128.545 166.467 128.613 167.054 128.613H168.051V130.538H166.126C164.993 130.538 164.201 130.095 163.732 129.209C163.443 129.703 163.042 130.044 162.523 130.24C162.003 130.436 161.202 130.529 160.129 130.529H159.371V128.604H160.342C160.93 128.604 161.381 128.528 161.714 128.374C162.046 128.221 162.276 127.948 162.403 127.574C162.531 127.199 162.599 126.679 162.599 126.015V122.897C162.599 122.557 162.71 122.301 162.923 122.131C163.136 121.952 163.417 121.867 163.766 121.867C163.945 121.867 164.133 121.884 164.329 121.926C164.524 121.969 164.678 122.02 164.797 122.08V126.023ZM161.151 120.282C160.921 120.044 160.802 119.763 160.802 119.439C160.802 119.098 160.921 118.817 161.151 118.579C161.381 118.349 161.662 118.229 161.986 118.229C162.327 118.229 162.608 118.349 162.846 118.579C163.085 118.809 163.196 119.098 163.196 119.439C163.196 119.763 163.076 120.044 162.846 120.282C162.616 120.521 162.327 120.64 161.986 120.64C161.662 120.64 161.39 120.521 161.151 120.282ZM164.559 120.282C164.329 120.044 164.209 119.763 164.209 119.439C164.209 119.098 164.329 118.817 164.559 118.579C164.789 118.349 165.07 118.229 165.393 118.229C165.734 118.229 166.024 118.349 166.262 118.579C166.501 118.809 166.62 119.098 166.62 119.439C166.62 119.763 166.501 120.044 166.262 120.282C166.024 120.521 165.734 120.64 165.393 120.64C165.078 120.64 164.797 120.521 164.559 120.282Z" fill="#F15A60"/>
<path d="M167.446 128.613H175.819V130.538H167.446V128.613Z" fill="#F15A60"/>
<path d="M180.376 130.538H175.231V128.613H178.17V116.245C178.17 115.904 178.281 115.648 178.494 115.478C178.707 115.299 178.988 115.214 179.337 115.214C179.516 115.214 179.703 115.231 179.899 115.274C180.095 115.316 180.249 115.367 180.368 115.427V130.538H180.376Z" fill="#F15A60"/>
<path d="M184.976 130.538H182.778V116.236C182.778 115.895 182.889 115.64 183.102 115.47C183.315 115.291 183.596 115.206 183.945 115.206C184.124 115.206 184.312 115.223 184.507 115.265C184.703 115.308 184.857 115.359 184.976 115.419V130.538Z" fill="#F15A60"/>
<path d="M203.17 128.374C203.17 130.649 202.71 132.335 201.782 133.451C200.853 134.558 199.439 135.112 197.548 135.112C195.785 135.112 194.431 134.618 193.494 133.621C192.557 132.625 192.088 131.194 192.088 129.328C192.088 128.826 192.122 128.357 192.199 127.931C192.267 127.514 192.378 127.156 192.523 126.867C192.795 126.33 193.179 126.066 193.673 126.066C194.047 126.066 194.422 126.185 194.78 126.415C194.635 126.918 194.525 127.412 194.448 127.88C194.371 128.349 194.329 128.8 194.329 129.243C194.329 130.461 194.618 131.415 195.189 132.088C195.76 132.761 196.56 133.102 197.582 133.102C198.673 133.102 199.508 132.719 200.087 131.96C200.666 131.202 200.956 130.103 200.956 128.681V116.236C200.956 115.895 201.066 115.64 201.288 115.47C201.509 115.291 201.799 115.206 202.148 115.206C202.327 115.206 202.514 115.223 202.71 115.265C202.906 115.308 203.06 115.359 203.179 115.419V128.374H203.17Z" fill="#F15A60"/>
<path d="M209.831 135.214C209.337 135.214 208.852 135.163 208.383 135.069C207.906 134.976 207.514 134.839 207.208 134.669L207.796 132.957C208.392 133.238 209.039 133.383 209.721 133.383C210.606 133.383 211.237 133.136 211.62 132.642C212.003 132.148 212.199 131.449 212.199 130.538H210.078C208.503 130.538 207.284 130.155 206.424 129.396C205.564 128.638 205.129 127.599 205.129 126.287C205.129 125.376 205.325 124.584 205.734 123.902C206.135 123.221 206.697 122.693 207.421 122.318C208.145 121.943 208.98 121.756 209.925 121.756C211.365 121.756 212.472 122.224 213.247 123.161C214.022 124.098 214.405 125.453 214.405 127.233V128.613H216.859V130.538H214.363C214.158 133.655 212.651 135.214 209.831 135.214ZM208.017 124.354C207.574 124.814 207.353 125.436 207.353 126.211C207.353 126.977 207.583 127.565 208.034 127.982C208.485 128.4 209.15 128.604 210.019 128.604H212.182V127.165C212.182 124.831 211.382 123.655 209.789 123.655C209.056 123.664 208.46 123.894 208.017 124.354Z" fill="#F15A60"/>
<path d="M216.263 128.613H224.636V130.538H216.263V128.613Z" fill="#F15A60"/>
<path d="M229.491 125.964C229.491 126.952 229.636 127.642 229.926 128.025C230.215 128.417 230.726 128.613 231.459 128.613H232.728V130.538H231.561C230.701 130.538 230.028 130.436 229.534 130.223C229.04 130.018 228.665 129.678 228.401 129.209C228.128 129.686 227.753 130.027 227.268 130.231C226.791 130.436 226.109 130.529 225.224 130.529H224.057V128.604H225.326C226.05 128.604 226.561 128.408 226.859 128.008C227.149 127.608 227.293 126.926 227.293 125.955V116.236C227.293 115.895 227.404 115.64 227.617 115.47C227.83 115.291 228.111 115.206 228.46 115.206C228.639 115.206 228.827 115.223 229.023 115.265C229.219 115.308 229.372 115.359 229.491 115.419V125.964Z" fill="#F15A60"/>
<path d="M232.14 128.613H240.513V130.538H232.14V128.613Z" fill="#F15A60"/>
<path d="M239.934 128.613H248.307V130.538H239.934V128.613Z" fill="#F15A60"/>
<path d="M256.799 126.33C257.31 127.097 257.762 127.855 258.162 128.613H260.224V130.538H247.719V128.613H255.624C255.249 127.991 254.857 127.403 254.465 126.85C254.074 126.296 253.699 125.836 253.367 125.478C252.804 124.831 252.285 124.379 251.799 124.132C251.314 123.885 250.82 123.766 250.309 123.766C250.104 123.766 249.908 123.783 249.729 123.826C249.551 123.868 249.38 123.919 249.193 123.979C248.878 123.604 248.724 123.229 248.724 122.872C248.724 122.531 248.895 122.267 249.235 122.071C249.576 121.875 250.053 121.781 250.649 121.781C251.476 121.781 252.234 121.977 252.915 122.369C253.597 122.761 254.304 123.34 255.028 124.124C255.709 124.822 256.297 125.563 256.799 126.33Z" fill="#F15A60"/>
<path d="M265.079 125.964C265.079 126.952 265.224 127.642 265.513 128.025C265.803 128.417 266.314 128.613 267.047 128.613H268.316V130.538H267.149C266.289 130.538 265.616 130.436 265.122 130.223C264.628 130.018 264.253 129.678 263.989 129.209C263.716 129.686 263.341 130.027 262.856 130.231C262.379 130.436 261.697 130.529 260.811 130.529H259.645V128.604H260.914C261.638 128.604 262.149 128.408 262.447 128.008C262.737 127.608 262.881 126.926 262.881 125.955V116.236C262.881 115.895 262.992 115.64 263.205 115.47C263.418 115.291 263.699 115.206 264.048 115.206C264.227 115.206 264.415 115.223 264.611 115.265C264.806 115.308 264.96 115.359 265.079 115.419V125.964Z" fill="#F15A60"/>
<path d="M272.873 130.538H267.728V128.613H270.667V116.245C270.667 115.904 270.777 115.648 270.99 115.478C271.203 115.299 271.484 115.214 271.834 115.214C272.013 115.214 272.2 115.231 272.396 115.274C272.592 115.316 272.745 115.367 272.864 115.427V130.538H272.873Z" fill="#F15A60"/>
<path d="M80.0943 54.4298C80.0943 60.682 77.9137 65.6309 73.544 69.2851C69.1743 72.9394 63.0925 74.7707 55.2815 74.7707H34.2251V60.0772H52.0872C55.1367 60.0772 57.5047 59.3873 59.1657 57.9988C60.8352 56.6104 61.67 54.6087 61.67 51.9852C61.67 49.3616 60.8011 47.3003 59.0635 45.8096C57.3258 44.319 54.9237 43.5694 51.8743 43.5694H34.2251V30.2558H50.5966C53.5779 30.2558 55.8692 29.5999 57.4621 28.2882C59.0635 26.9764 59.8557 25.0428 59.8557 22.4874C59.8557 19.932 59.0549 17.9814 57.4621 16.6271C55.8607 15.2813 53.5779 14.5998 50.5966 14.5998H34.2251V0.00852966H54.106C61.7041 0.00852966 67.6496 1.7462 71.9426 5.23005C76.2357 8.70538 78.3822 13.4329 78.3822 19.3954C78.3822 23.7992 77.2238 27.4534 74.9239 30.3666C72.6155 33.2797 69.5491 35.2985 65.7075 36.4399C70.0346 37.3598 73.5185 39.5149 76.142 42.8794C78.7741 46.2526 80.0943 50.1027 80.0943 54.4298Z" fill="white"/>
<path d="M31.3117 14.9747H15.6558V30.6307H31.3117V14.9747Z" fill="#F15A60"/>
<path d="M15.656 29.9408H0V45.5968H15.656V29.9408Z" fill="#F15A60"/>
<path d="M31.3117 44.1573H15.6558V59.8133H31.3117V44.1573Z" fill="#F15A60"/>
<path d="M130.964 45.1623C136.432 43.5268 140.564 40.7585 143.375 36.8573C146.177 32.956 147.582 28.5182 147.582 23.5437C147.582 19.1399 146.552 15.145 144.49 11.5589C142.429 7.97282 139.329 5.15337 135.172 3.09203C131.015 1.03068 125.998 0 120.103 0H89.541V74.7622H107.752V46.5422H112.122L127.667 74.7622H148.221L130.964 45.1623ZM126.543 31.2183C124.874 32.8538 122.369 33.6715 119.039 33.6715H107.752V15.1364H119.039C122.378 15.1364 124.874 15.9541 126.543 17.5896C128.213 19.225 129.047 21.4568 129.047 24.3018C129.047 27.2745 128.204 29.5829 126.543 31.2183Z" fill="white"/>
<path d="M202.208 0.00852966H181.118L154.064 74.7707H173.128L177.6 61.5679H205.504L209.976 74.7707H229.253L202.208 0.00852966ZM182.395 47.5132L191.552 20.145L200.82 47.5132H182.395Z" fill="white"/>
<path d="M288.367 0.00852966L269.73 56.4571L251.195 0.00852966H231.816L258.333 74.7707H281.127L307.643 0.00852966H288.367Z" fill="white"/>
<path d="M361 14.5998V0.00852966H315.208V74.7707H361V60.1794H333.419V43.7824H357.806V29.7277H333.419V14.5998H361Z" fill="white"/>
</svg>
