<svg width="21" height="20" viewBox="0 0 21 20" fill="none" xmlns="http://www.w3.org/2000/svg">
<path d="M6.77276 8.58261H1.87189C1.37567 8.58215 0.899906 8.38487 0.548976 8.03405C0.198045 7.68323 0.000613912 7.20752 0 6.71131V1.87131C0.000613912 1.37509 0.198045 0.899387 0.548976 0.548566C0.899906 0.197744 1.37567 0.000460214 1.87189 0H6.77276C7.26887 0.000613622 7.74449 0.197966 8.09529 0.54877C8.4461 0.899575 8.64345 1.37519 8.64406 1.87131V6.71131C8.64345 7.20742 8.4461 7.68304 8.09529 8.03384C7.74449 8.38465 7.26887 8.582 6.77276 8.58261ZM1.87189 1.44928C1.75995 1.44943 1.65263 1.49392 1.57343 1.57302C1.49422 1.65212 1.44958 1.75937 1.44928 1.87131V6.71131C1.44958 6.82324 1.49422 6.9305 1.57343 7.00959C1.65263 7.08869 1.75995 7.13319 1.87189 7.13334H6.77276C6.88464 7.13318 6.9919 7.08867 7.07101 7.00956C7.15012 6.93045 7.19463 6.82319 7.19479 6.71131V1.87131C7.19463 1.75942 7.15012 1.65217 7.07101 1.57306C6.9919 1.49394 6.88464 1.44943 6.77276 1.44928H1.87189Z" fill="white"/>
<path d="M6.79644 20.0001H1.89557C1.3993 19.9995 0.923536 19.8021 0.572622 19.4512C0.221708 19.1002 0.0242953 18.6245 0.0236816 18.1282V13.2888C0.0242956 12.7926 0.221727 12.3169 0.572657 11.966C0.923588 11.6152 1.39935 11.4179 1.89557 11.4175H6.79644C7.29235 11.4184 7.76767 11.6159 8.11823 11.9667C8.46878 12.3174 8.66597 12.7929 8.66659 13.2888V18.1282C8.66613 18.6242 8.469 19.0998 8.11843 19.4507C7.76786 19.8016 7.29245 19.9992 6.79644 20.0001ZM1.89557 12.8668C1.78363 12.8669 1.67632 12.9114 1.59711 12.9905C1.51791 13.0696 1.47326 13.1769 1.47296 13.2888V18.1282C1.47311 18.2402 1.51769 18.3476 1.59691 18.4269C1.67613 18.5061 1.78353 18.5507 1.89557 18.5508H6.79644C6.90837 18.5505 7.01563 18.5059 7.09473 18.4267C7.17382 18.3475 7.21832 18.2401 7.21847 18.1282V13.2888C7.21832 13.1769 7.1738 13.0696 7.09469 12.9905C7.01558 12.9114 6.90832 12.8669 6.79644 12.8668H1.89557Z" fill="white"/>
<path d="M18.1287 20.0001H13.2278C12.7316 19.9995 12.2558 19.8021 11.9049 19.4512C11.554 19.1002 11.3566 18.6245 11.356 18.1282V13.2888C11.3566 12.7926 11.554 12.3169 11.9049 11.966C12.2559 11.6152 12.7316 11.4179 13.2278 11.4175H18.1287C18.6248 11.4181 19.1004 11.6154 19.4513 11.9663C19.8021 12.3171 19.9994 12.7927 20 13.2888V18.1282C19.9996 18.6244 19.8023 19.1002 19.4515 19.4511C19.1006 19.802 18.6249 19.9995 18.1287 20.0001ZM13.2278 12.8697C13.1159 12.8698 13.0086 12.9143 12.9294 12.9934C12.8502 13.0725 12.8055 13.1797 12.8052 13.2917V18.1311C12.8054 18.2431 12.85 18.3505 12.9292 18.4298C13.0084 18.509 13.1158 18.5536 13.2278 18.5537H18.1287C18.2407 18.5534 18.3479 18.5088 18.427 18.4296C18.5061 18.3504 18.5506 18.243 18.5507 18.1311V13.2888C18.5506 13.1769 18.5061 13.0696 18.427 12.9905C18.3479 12.9114 18.2406 12.8669 18.1287 12.8668L13.2278 12.8697Z" fill="white"/>
<path d="M15.6811 8.58253C14.834 8.57623 14.0078 8.3193 13.3065 7.84411C12.6052 7.36892 12.0604 6.69676 11.7406 5.91236C11.4208 5.12795 11.3403 4.26643 11.5094 3.43639C11.6786 2.60635 12.0896 1.84495 12.6908 1.24819C13.292 0.65143 14.0564 0.246015 14.8877 0.0830581C15.719 -0.0798993 16.5799 0.00689563 17.3619 0.332501C18.1439 0.658106 18.812 1.20795 19.282 1.9127C19.752 2.61746 20.0028 3.44558 20.0028 4.29267C19.9971 5.43419 19.539 6.52686 18.7288 7.33106C17.9186 8.13525 16.8226 8.58531 15.6811 8.58253ZM15.6811 1.45209C15.1207 1.45838 14.5746 1.63031 14.1117 1.94624C13.6488 2.26216 13.2897 2.70797 13.0796 3.22754C12.8694 3.74711 12.8177 4.31723 12.9309 4.86613C13.0441 5.41503 13.3171 5.91819 13.7156 6.31227C14.1141 6.70634 14.6203 6.97373 15.1704 7.08078C15.7205 7.18782 16.29 7.12974 16.8072 6.91384C17.3244 6.69794 17.7662 6.33387 18.0769 5.86745C18.3877 5.40103 18.5535 4.85312 18.5535 4.29267C18.5489 3.53493 18.2439 2.80996 17.7054 2.27687C17.1668 1.74377 16.4388 1.44611 15.6811 1.44919V1.45209Z" fill="white"/>
</svg>
