<svg width="25" height="24" viewBox="0 0 25 24" fill="none" xmlns="http://www.w3.org/2000/svg">
<path d="M4.56128 8.33333H2.82446" stroke="white" stroke-width="1.5" stroke-linecap="round" stroke-linejoin="round"/>
<path d="M4.56128 15.6667H2.82446" stroke="white" stroke-width="1.5" stroke-linecap="round" stroke-linejoin="round"/>
<path d="M3.98275 12H1.66699" stroke="white" stroke-width="1.5" stroke-linecap="round" stroke-linejoin="round"/>
<path d="M5.87744 4.22183C7.33483 2.68345 9.19165 1.6358 11.2131 1.21137C13.2346 0.786929 15.3299 1.00477 17.234 1.83733C19.1382 2.66989 20.7657 4.07979 21.9108 5.88873C23.0558 7.69767 23.667 9.82441 23.667 12C23.667 14.1756 23.0558 16.3023 21.9108 18.1113C20.7657 19.9202 19.1382 21.3301 17.234 22.1627C15.3299 22.9952 13.2346 23.2131 11.2131 22.7886C9.19165 22.3642 7.33483 21.3165 5.87744 19.7782" stroke="white" stroke-width="1.5" stroke-linecap="round" stroke-linejoin="round"/>
<path d="M13.2454 6.5V7.6108" stroke="white" stroke-width="1.5" stroke-linecap="round" stroke-linejoin="round"/>
<path d="M10.6401 9.83221C10.7133 9.17602 11.0269 8.57614 11.5138 8.16093C12.0007 7.74573 12.6222 7.54819 13.2454 7.61059" stroke="white" stroke-width="1.5" stroke-linecap="round" stroke-linejoin="round"/>
<path d="M13.2454 17.5002V16.3894" stroke="white" stroke-width="1.5" stroke-linecap="round" stroke-linejoin="round"/>
<path d="M15.8506 14.1675C15.7774 14.8237 15.4638 15.4236 14.9769 15.8388C14.49 16.254 13.8685 16.4515 13.2454 16.3891" stroke="white" stroke-width="1.5" stroke-linecap="round" stroke-linejoin="round"/>
<path d="M15.7842 9.34747C15.5933 8.80894 15.2435 8.34942 14.7864 8.03668C14.3293 7.72394 13.789 7.57453 13.2454 7.6105" stroke="white" stroke-width="1.5" stroke-linecap="round" stroke-linejoin="round"/>
<path d="M10.7053 14.6521C10.8962 15.1907 11.2461 15.6502 11.7032 15.9629C12.1603 16.2757 12.7005 16.4251 13.2442 16.3891" stroke="white" stroke-width="1.5" stroke-linecap="round" stroke-linejoin="round"/>
<path d="M10.6401 9.83246C10.6401 10.2886 10.7899 10.7306 11.0638 11.0834C11.3378 11.4361 11.7191 11.6778 12.1428 11.7672L14.3479 12.2328C14.7717 12.3222 15.1529 12.5639 15.4269 12.9166C15.7009 13.2694 15.8506 13.7114 15.8506 14.1676" stroke="white" stroke-width="1.5" stroke-linecap="round" stroke-linejoin="round"/>
</svg>
