<svg width="19" height="20" viewBox="0 0 19 20" fill="none" xmlns="http://www.w3.org/2000/svg">
<path d="M17.8498 5.00161L9.61551 1.02641C9.54251 0.991198 9.45749 0.991198 9.38453 1.02641L1.15015 5.00161C1.05834 5.04592 1 5.1389 1 5.24084V14.8949C1 14.9969 1.05834 15.0898 1.15015 15.1341L9.38449 19.1093C9.42097 19.127 9.46051 19.1358 9.5 19.1358C9.5395 19.1358 9.57899 19.127 9.61551 19.1093L17.8498 15.1341C17.9417 15.0898 18 14.9969 18 14.8949V5.24088C18 5.13887 17.9416 5.04596 17.8498 5.00161ZM9.5 1.56067L17.1233 5.24084L14.9135 6.30767C14.8995 6.297 14.8847 6.28716 14.8685 6.27933L7.29697 2.62419L9.5 1.56067ZM6.697 2.92457L14.3092 6.5994L12.7501 7.35207L5.14108 3.67873L6.697 2.92457ZM14.4873 7.10337V9.88558L13.031 10.5886V7.80642L14.4873 7.10337ZM17.4687 14.7282L9.76566 18.4468V9.38277L11.6031 8.49575C11.7352 8.43196 11.7906 8.27316 11.7268 8.14101C11.663 8.00892 11.5042 7.95345 11.3721 8.01728L9.5 8.92106L8.76338 8.56542C8.63122 8.50156 8.47243 8.55703 8.40863 8.68915C8.34484 8.82127 8.40024 8.9801 8.53236 9.0439L9.23434 9.38277V18.4468L1.53132 14.7281V5.66409L7.3971 8.49586C7.43433 8.51385 7.47368 8.52235 7.5124 8.52235C7.61115 8.52235 7.70601 8.46702 7.75181 8.37213C7.81561 8.24001 7.76021 8.08118 7.62809 8.01739L1.87671 5.24084L4.51579 3.96681L12.496 7.81934C12.4972 7.82097 12.4985 7.82243 12.4997 7.82402V11.0119C12.4997 11.1033 12.5467 11.1883 12.6241 11.2369C12.6671 11.2639 12.7162 11.2776 12.7654 11.2776C12.8048 11.2776 12.8443 11.2688 12.8809 11.2511L14.8685 10.2916C14.9603 10.2473 15.0186 10.1544 15.0186 10.0524V6.84692L17.4687 5.66413V14.7282Z" fill="white" stroke="white" stroke-width="0.7"/>
</svg>
