<svg width="22" height="22" viewBox="0 0 22 22" fill="none" xmlns="http://www.w3.org/2000/svg">
<path d="M1.74074 11C1.74074 5.88626 5.88626 1.74074 11 1.74074C14.0289 1.74074 16.7184 3.19485 18.4081 5.44444H16.3704C16.1658 5.44444 16 5.61026 16 5.81481C16 6.01937 16.1658 6.18518 16.3704 6.18518H19.1157C19.3204 6.18518 19.4861 6.01937 19.4861 5.81481V3.12963C19.4861 2.92507 19.3204 2.75926 19.1157 2.75926C18.9113 2.75926 18.7454 2.92507 18.7454 3.12963V4.67439C16.9121 2.43215 14.1234 1 11 1C5.47715 1 1 5.47715 1 11C1 12.3622 1.27259 13.6618 1.76656 14.8463C1.84528 15.0351 2.06215 15.1243 2.25094 15.0455C2.43974 14.9668 2.52896 14.7499 2.45022 14.5611C1.99328 13.4654 1.74074 12.2626 1.74074 11Z" fill="white" stroke="white" stroke-width="0.5"/>
<path d="M20.2728 7.25006C20.1961 7.06045 19.9802 6.96897 19.7906 7.04571C19.6009 7.12247 19.5094 7.33839 19.5861 7.52799C20.02 8.59975 20.2591 9.77156 20.2591 11.0001C20.2591 16.1139 16.1136 20.2594 10.9998 20.2594C7.92958 20.2594 5.20804 18.7653 3.52304 16.4631H5.72204C5.9266 16.4631 6.09241 16.2973 6.09241 16.0927C6.09241 15.8882 5.9266 15.7224 5.72204 15.7224H2.82545C2.62091 15.7224 2.45508 15.8882 2.45508 16.0927V18.7779C2.45508 18.9825 2.62091 19.1483 2.82545 19.1483C3.03 19.1483 3.19582 18.9825 3.19582 18.7779V17.2535C5.02813 19.5372 7.84302 21.0001 10.9998 21.0001C16.5227 21.0001 20.9998 16.523 20.9998 11.0001C20.9998 9.67469 20.7417 8.4086 20.2728 7.25006Z" fill="white" stroke="white" stroke-width="0.5"/>
<path d="M11.3972 5.44459C11.3972 5.24003 11.2314 5.07422 11.0268 5.07422C10.8223 5.07422 10.6565 5.24003 10.6565 5.44459V6.24433L10.2799 5.95424C10.1179 5.8294 9.88531 5.85957 9.76048 6.02163C9.63564 6.18366 9.66581 6.41622 9.82787 6.54105L10.6565 7.17937V7.70042L9.54914 6.67222C9.39924 6.53303 9.1649 6.54172 9.02572 6.69161C8.88653 6.84151 8.89522 7.07585 9.04511 7.21503L10.6565 8.71124V10.5228L9.03318 9.59285L8.63346 7.56789C8.59385 7.3672 8.39905 7.23663 8.19837 7.27624C7.9977 7.31587 7.86713 7.51064 7.90674 7.71133L8.18189 9.1052L7.68355 8.81972L7.49894 7.83879C7.46111 7.63777 7.26748 7.50548 7.06646 7.54331C6.86544 7.58114 6.73314 7.77477 6.77098 7.97579L6.83874 8.33577L6.18392 7.96066C6.00644 7.859 5.78013 7.92046 5.67846 8.09794C5.57677 8.27544 5.63824 8.50176 5.81574 8.60342L6.54942 9.02372L6.22068 9.1782C6.03555 9.2652 5.95601 9.48579 6.04301 9.67092C6.13 9.85605 6.35061 9.93559 6.53574 9.84861L7.33429 9.47333L7.75248 9.71289L6.49409 10.067C6.2972 10.1224 6.1825 10.327 6.2379 10.5238C6.29331 10.7208 6.49785 10.8355 6.69476 10.7801L8.65327 10.2289L10.2547 11.1463L8.65772 12.0611L6.70305 11.4614C6.50752 11.4014 6.30035 11.5113 6.24035 11.7068C6.18035 11.9024 6.29024 12.1096 6.48579 12.1696L7.77689 12.5657L7.30601 12.8354L6.48622 12.5855C6.29055 12.5258 6.08359 12.6361 6.02394 12.8318C5.96429 13.0274 6.07455 13.2344 6.2702 13.294L6.42372 13.3408L5.81574 13.6891C5.63824 13.7908 5.57677 14.0171 5.67846 14.1946C5.78013 14.3721 6.00644 14.4336 6.18392 14.3319L6.81096 13.9727L6.77314 14.1455C6.72944 14.3453 6.85598 14.5427 7.05581 14.5865C7.25563 14.6302 7.45305 14.5036 7.49677 14.3038L7.67787 13.4761L8.12305 13.2211L7.8035 14.4529C7.75213 14.6509 7.871 14.853 8.06898 14.9044C8.26698 14.9557 8.46913 14.8369 8.5205 14.6389L9.02189 12.7062L10.6565 11.7698V13.6232L9.05963 14.9576C8.90266 15.0888 8.88176 15.3224 9.01292 15.4793C9.14409 15.6363 9.37766 15.6572 9.53463 15.5261L10.6565 14.5885V15.1007L10.0801 15.6057C9.92624 15.7405 9.91079 15.9745 10.0456 16.1284C10.1804 16.2822 10.4144 16.2977 10.5682 16.1629L10.6565 16.0855V16.7409C10.6565 16.9454 10.8223 17.1113 11.0268 17.1113C11.2314 17.1113 11.3972 16.9454 11.3972 16.7409V16.0474L11.5499 16.1716C11.7086 16.3007 11.9418 16.2767 12.0709 16.118C12.2 15.9594 12.176 15.7261 12.0173 15.597L11.3972 15.0925V14.6417L12.3433 15.5141C12.4937 15.6528 12.728 15.6433 12.8667 15.4929C13.0054 15.3426 12.9959 15.1082 12.8455 14.9696L11.3972 13.6341V11.8008L12.9731 12.7035L13.4229 14.6301C13.4695 14.8293 13.6686 14.9531 13.8678 14.9065C14.067 14.86 14.1908 14.6608 14.1443 14.4617L13.8512 13.2065L14.3008 13.4641L14.3884 14.2649C14.4107 14.4683 14.5935 14.6151 14.7969 14.5928C15.0002 14.5706 15.147 14.3877 15.1248 14.1844L15.0958 13.9195L15.8157 14.3319C15.9932 14.4336 16.2195 14.3721 16.3212 14.1946C16.4229 14.0171 16.3614 13.7908 16.1839 13.6891L15.733 13.4308L15.8446 13.4121C16.0464 13.3785 16.1826 13.1876 16.1489 12.9858C16.1152 12.7841 15.9244 12.6478 15.7226 12.6815L14.7179 12.8493L14.2153 12.5614L15.4624 12.1688C15.6575 12.1073 15.7659 11.8993 15.7045 11.7043C15.643 11.5091 15.4351 11.4008 15.2399 11.4622L13.3405 12.0603L11.7449 11.1463L13.3451 10.2296L15.2484 10.7793C15.4449 10.8361 15.6503 10.7228 15.707 10.5263C15.7638 10.3298 15.6505 10.1245 15.454 10.0677L14.2399 9.71705L14.7087 9.44851L15.4341 9.6075C15.6339 9.65129 15.8313 9.52481 15.8751 9.325C15.9139 9.148 15.8191 8.97281 15.658 8.9047L16.1839 8.60342C16.3614 8.50176 16.4229 8.27544 16.3212 8.09794C16.2195 7.92046 15.9932 7.859 15.8157 7.96066L15.0958 8.37309L15.1248 8.10818C15.147 7.90483 15.0002 7.72198 14.7969 7.69972C14.5935 7.67748 14.4107 7.82429 14.3884 8.02763L14.3008 8.8285L13.8355 9.09505L14.1456 7.66453C14.1889 7.46463 14.062 7.26744 13.8621 7.22411C13.6622 7.18077 13.465 7.3077 13.4216 7.50761L12.9701 9.59079L11.3972 10.4918V8.70052L12.8595 7.20231C13.0023 7.05592 12.9995 6.82144 12.8531 6.67857C12.7067 6.5357 12.4722 6.53855 12.3294 6.68492L11.3972 7.64V7.17301L12.1799 6.53464C12.3384 6.40537 12.3621 6.17205 12.2328 6.01355C12.1035 5.85503 11.8702 5.83135 11.7117 5.96064L11.3972 6.21713V5.44459Z" fill="white" stroke="white" stroke-width="0.5"/>
</svg>
