<svg width="24" height="24" viewBox="0 0 24 24" fill="none" xmlns="http://www.w3.org/2000/svg">
<path d="M5.0709 20.4913C4.8746 20.4913 4.71606 20.3326 4.71606 20.1364V18.4256C4.71606 18.2295 4.8746 18.0708 5.0709 18.0708C5.26703 18.0708 5.42574 18.2295 5.42574 18.4256V20.1364C5.42574 20.3322 5.26669 20.4913 5.0709 20.4913Z" fill="#C6C6C6" stroke="white" stroke-width="0.8"/>
<path d="M12.5411 21.0132H1.35484C1.15853 21.0132 1 20.8547 1 20.6584V17.1831C1 13.9821 2.96305 11.1183 5.8844 10.0576C6.00534 10.0132 6.13979 10.0385 6.2363 10.1219C7.04214 10.812 8.05883 11.1925 9.09961 11.1925C10.1452 11.1925 11.1651 10.8099 11.9712 10.1148C12.0684 10.0314 12.2041 10.0061 12.3243 10.0501C13.0787 10.3246 13.7816 10.7238 14.4135 11.2372C14.5002 11.307 14.5488 11.4139 14.5445 11.5253C14.5407 11.6363 14.4849 11.7396 14.3938 11.8032L14.3508 11.8333L14.1557 11.5551L13.9665 11.7883C13.4488 11.3678 12.879 11.0324 12.2696 10.7889C11.3624 11.5083 10.245 11.9025 9.09961 11.9025C7.95938 11.9025 6.84531 11.5111 5.93933 10.7964C3.40123 11.808 1.70968 14.3488 1.70968 17.1831V20.3036H12.5411V21.0132Z" fill="#C6C6C6" stroke="white" stroke-width="0.8"/>
<path d="M9.09945 11.9021C6.2131 11.9021 3.86523 9.45653 3.86523 6.45114C3.86523 3.44558 6.2131 1 9.09945 1C11.9856 1 14.334 3.44523 14.334 6.45062C14.334 9.45618 11.9856 11.9021 9.09945 11.9021ZM9.09945 1.70968C6.60449 1.70968 4.57491 3.83663 4.57491 6.45062C4.57491 9.06513 6.60449 11.1921 9.09945 11.1921C11.5942 11.1921 13.6243 9.06513 13.6243 6.45062C13.6243 3.83663 11.5942 1.70968 9.09945 1.70968Z" fill="#C6C6C6" stroke="white" stroke-width="0.8"/>
<path d="M16.8281 19.2392C16.6802 19.2392 16.5315 19.2259 16.3835 19.1985C15.7324 19.0775 15.1636 18.7021 14.7811 18.1404C14.4007 17.5801 14.2562 16.9087 14.3744 16.2508C14.4933 15.5915 14.8627 15.0149 15.4145 14.6266C15.9684 14.2375 16.6327 14.0909 17.2845 14.2105C17.936 14.3316 18.5044 14.7072 18.8861 15.2689L18.8891 15.2729C19.2656 15.8428 19.4089 16.5128 19.2933 17.1582C19.1743 17.8171 18.8054 18.3937 18.2532 18.782C17.8249 19.0827 17.3309 19.2392 16.8281 19.2392ZM16.8406 14.8791C16.4821 14.8791 16.1295 14.9912 15.8229 15.2072C15.4247 15.4869 15.1586 15.902 15.0735 16.3764C14.9883 16.8505 15.0933 17.3352 15.3688 17.7415C15.6434 18.1452 16.05 18.4147 16.5135 18.5009C16.9747 18.586 17.4484 18.4803 17.8452 18.2014C18.2433 17.9217 18.5095 17.5066 18.5945 17.0325C18.6779 16.568 18.5725 16.0826 18.2979 15.6657C18.024 15.263 17.618 14.994 17.1549 14.9082C17.0499 14.889 16.9453 14.8791 16.8406 14.8791Z" fill="white" stroke="white" stroke-width="0.8"/>
<path d="M16.9177 22.9997C16.8726 22.9997 16.8269 22.9955 16.7815 22.9872L14.7017 22.6019C14.3044 22.5281 14.0495 22.1563 14.1216 21.7553L14.2876 20.8313C14.2645 20.8161 14.2425 20.8005 14.2221 20.7849L14.1954 20.7674L13.4278 21.3071C13.2891 21.4133 13.0954 21.4611 12.9074 21.4296C12.7131 21.3979 12.5387 21.2861 12.428 21.1229L11.2293 19.3602C11.1247 19.2179 11.08 19.0284 11.1115 18.8374C11.143 18.6448 11.252 18.4705 11.4109 18.3591L12.1622 17.8169C12.1561 17.7878 12.1511 17.7601 12.1466 17.7343C12.144 17.7211 12.1419 17.7076 12.1398 17.6938L11.2328 17.5257C11.0469 17.4909 10.8797 17.3795 10.7747 17.2194C10.6669 17.0548 10.6324 16.8581 10.6768 16.6654L11.0536 14.5685C11.0888 14.3725 11.1949 14.2046 11.353 14.0951C11.5104 13.9861 11.7027 13.9459 11.895 13.9815L12.7953 14.1487C12.8093 14.1263 12.8239 14.105 12.8384 14.0851L12.8608 14.0489L12.3254 13.2616C12.2211 13.12 12.1764 12.9308 12.2072 12.7399C12.2388 12.5472 12.3477 12.3727 12.5063 12.2608L14.2418 11.0409C14.381 10.9352 14.575 10.8884 14.7625 10.9185C14.9565 10.9501 15.1312 11.0618 15.2419 11.225L15.7745 12.0082C15.7844 12.0058 15.7942 12.003 15.8039 12.0004C15.8156 11.9969 15.8277 11.994 15.84 11.9919C15.8525 11.9895 15.8653 11.9872 15.8781 11.9855L16.0444 11.0598C16.0803 10.8631 16.1863 10.6957 16.3447 10.5861C16.5015 10.4774 16.6935 10.4378 16.8861 10.4729L18.9559 10.8565C19.3534 10.9302 19.6081 11.3022 19.536 11.7031L19.3697 12.6271C19.393 12.6423 19.4151 12.6579 19.4357 12.6735L19.4622 12.691L20.2297 12.1513C20.3689 12.0454 20.5629 11.9983 20.7504 12.0288C20.9444 12.0603 21.1191 12.1721 21.2298 12.3355L22.4191 14.0975C22.5227 14.2381 22.5674 14.4273 22.5365 14.618C22.505 14.8107 22.396 14.9853 22.2375 15.0971L21.4625 15.6415C21.4656 15.6557 21.4689 15.6695 21.4724 15.6825C21.4756 15.694 21.4784 15.7052 21.4802 15.7174C21.4828 15.7312 21.4852 15.7451 21.4873 15.7593L22.3939 15.9274C22.7573 15.9949 23.0118 16.3312 22.9997 16.7263C22.999 16.7436 22.9972 16.7609 22.9939 16.7781L22.614 18.8925C22.5785 19.0887 22.4724 19.2566 22.3137 19.3662C22.1562 19.4747 21.9646 19.5135 21.7719 19.479L20.8724 19.3118C20.8581 19.3342 20.8436 19.3555 20.829 19.3754L20.8067 19.4113L21.3422 20.1989C21.4469 20.3414 21.4916 20.5307 21.4601 20.7217C21.4283 20.9143 21.3195 21.0886 21.1605 21.2L19.4256 22.4196C19.2867 22.5257 19.0933 22.5731 18.9051 22.5423C18.7114 22.5104 18.5368 22.399 18.4257 22.2361L17.8957 21.4561C17.8725 21.4608 17.8498 21.4651 17.8278 21.4693C17.8152 21.4714 17.8027 21.474 17.7895 21.4757L17.6232 22.4011C17.588 22.597 17.482 22.7648 17.3236 22.8744C17.2034 22.9567 17.0632 22.9997 16.9177 22.9997ZM14.1982 19.9768C14.2851 19.9768 14.3718 20.0089 14.4395 20.0716C14.4757 20.105 14.5173 20.1302 14.5587 20.1575L14.64 20.2114C14.6755 20.2377 14.728 20.2734 14.8309 20.3211C14.9775 20.3888 15.0601 20.547 15.0314 20.7061L14.8203 21.881L16.9109 22.2893L17.136 21.0999C17.1608 20.9615 17.2644 20.8516 17.4011 20.8178C17.474 20.8002 17.5457 20.7904 17.615 20.782C17.644 20.7781 17.6724 20.7749 17.6998 20.77C17.7427 20.762 17.847 20.7426 17.9141 20.7159C18.0695 20.6539 18.2466 20.7081 18.34 20.8455L19.0131 21.8359L20.7525 20.6184L20.0814 19.6071C19.9899 19.4723 20.0015 19.2924 20.1105 19.171C20.1436 19.1341 20.1684 19.0914 20.1954 19.049L20.2486 18.9667C20.2744 18.9308 20.3099 18.8764 20.3579 18.7704C20.4246 18.6214 20.5825 18.5384 20.7464 18.5666L21.9017 18.781L22.2896 16.6847C22.2863 16.6485 22.2711 16.6268 22.2643 16.6254L21.109 16.4111C20.9711 16.3855 20.8611 16.2808 20.8287 16.1439C20.811 16.0705 20.8022 15.9987 20.7937 15.93C20.7907 15.9047 20.788 15.8795 20.7843 15.8558C20.7748 15.8192 20.7663 15.7809 20.7585 15.7414C20.75 15.7011 20.7429 15.6588 20.7284 15.6209C20.6684 15.4686 20.7209 15.2955 20.8543 15.201L21.8288 14.5163L20.6417 12.7331L19.6635 13.417C19.5261 13.5131 19.3409 13.5007 19.2181 13.3868C19.182 13.3534 19.1404 13.3283 19.0989 13.3009L19.0176 13.247C18.9821 13.2207 18.9292 13.1845 18.8267 13.1373C18.6799 13.0703 18.5971 12.9112 18.6258 12.7523L18.8374 11.5775L16.7569 11.1708L16.532 12.3603C16.5072 12.498 16.4039 12.6082 16.2683 12.642C16.1948 12.66 16.1236 12.6697 16.0543 12.6782C16.0302 12.6813 16.0065 12.6843 15.9838 12.6877C15.9472 12.6974 15.9089 12.7063 15.8703 12.7144C15.8315 12.7225 15.7911 12.7296 15.7556 12.7439C15.6009 12.8081 15.4228 12.7534 15.3283 12.6149L14.6552 11.6246L12.9159 12.8417L13.5869 13.8531C13.6787 13.9882 13.6666 14.1686 13.5571 14.2899C13.5243 14.3264 13.4999 14.3684 13.4732 14.4105L13.4197 14.4936C13.3939 14.5293 13.3584 14.5837 13.3104 14.6898C13.2437 14.8388 13.0869 14.9217 12.9219 14.8935L11.7664 14.6792L11.373 16.8082L12.5187 17.0416C12.6565 17.0672 12.7662 17.1715 12.7991 17.3077C12.8167 17.3819 12.8261 17.454 12.8346 17.5234C12.8381 17.5532 12.8417 17.5823 12.8462 17.6104C12.8537 17.6527 12.8725 17.7608 12.8999 17.8315C12.9592 17.9822 12.9084 18.1538 12.7771 18.2484L11.8229 18.9369L13.0155 20.7234L13.9946 20.0407C14.0559 19.9981 14.1273 19.9768 14.1982 19.9768Z" fill="white" stroke="white" stroke-width="0.8"/>
</svg>
