<svg width="18" height="21" viewBox="0 0 18 21" fill="none" xmlns="http://www.w3.org/2000/svg">
<path d="M9.0001 0C6.02254 0 3.6001 2.42244 3.6001 5.4C3.6001 8.37756 6.02254 10.8 9.0001 10.8C11.9777 10.8 14.4001 8.37756 14.4001 5.4C14.4001 2.42244 11.9777 0 9.0001 0ZM9.0001 9.6C6.68422 9.6 4.8001 7.71588 4.8001 5.4C4.8001 3.08412 6.68422 1.2 9.0001 1.2C11.316 1.2 13.2001 3.08412 13.2001 5.4C13.2001 7.71588 11.316 9.6 9.0001 9.6Z" fill="white"/>
<path d="M15.7186 14.3278C14.2402 12.8267 12.2804 12 10.2 12H7.8C5.71968 12 3.75976 12.8267 2.28136 14.3278C0.8102 15.8216 0 17.7933 0 19.88C0 20.2114 0.26864 20.48 0.6 20.48H17.4C17.7314 20.48 18 20.2114 18 19.88C18 17.7933 17.1898 15.8216 15.7186 14.3278ZM1.2264 19.28C1.527 15.8766 4.36044 13.2 7.8 13.2H10.2C13.6396 13.2 16.473 15.8766 16.7736 19.28H1.2264Z" fill="white"/>
</svg>
