<svg width="20" height="20" viewBox="0 0 20 20" fill="none" xmlns="http://www.w3.org/2000/svg">
<path fill-rule="evenodd" clip-rule="evenodd" d="M9.47968 0.135528C9.80325 -0.0451761 10.1968 -0.0451761 10.5203 0.135528L19.4489 5.12149C19.789 5.31143 20 5.67182 20 6.06294V18.923C20 19.5178 19.5203 20 18.9286 20H1.07143C0.479693 20 0 19.5178 0 18.923V6.06294C0 5.67182 0.210957 5.31143 0.551096 5.12149L9.47968 0.135528ZM10.1734 0.763155C10.0656 0.702921 9.93443 0.702921 9.82657 0.763155L0.897986 5.74911C0.784604 5.81244 0.714286 5.93256 0.714286 6.06294V18.923C0.714286 19.1213 0.874182 19.282 1.07143 19.282H2.85714V8.51236C2.85714 8.31409 3.01704 8.15337 3.21429 8.15337H16.7857C16.983 8.15337 17.1429 8.31409 17.1429 8.51236V19.282H18.9286C19.1258 19.282 19.2857 19.1213 19.2857 18.923V6.06294C19.2857 5.93256 19.2154 5.81244 19.102 5.74911L10.1734 0.763155ZM16.4286 17.1281V16.0511H3.57143V17.1281H16.4286ZM3.57143 17.8461H16.4286V19.282H3.57143V17.8461ZM3.57143 15.3331H16.4286V14.2562H3.57143V15.3331ZM16.4286 13.5382V12.4612H3.57143V13.5382H16.4286ZM3.57143 11.7433H16.4286V10.6663H3.57143V11.7433ZM16.4286 9.94831V8.87135H3.57143V9.94831H16.4286Z" fill="white"/>
</svg>
