<svg width="30" height="30" viewBox="0 0 30 30" fill="none" xmlns="http://www.w3.org/2000/svg">
<path d="M29.065 6.15681C28.9946 6.00994 28.8294 5.84166 28.6784 5.77842L15.2663 0.139221C14.8257 -0.0464069 14.3219 -0.0464069 13.8823 0.139221L7.3843 2.8706C7.38124 2.87162 7.3792 2.87264 7.37614 2.87366L0.469168 5.7774C0.200926 5.89061 0 6.19251 0 6.48319V22.7521C0 23.4722 0.428371 24.1178 1.09337 24.3973L14.2617 29.9335C14.4698 30.0222 14.6778 30.0222 14.8859 29.9335L28.0552 24.3962C28.7182 24.1168 29.1476 23.4712 29.1476 22.7511V6.48319C29.1476 6.3659 29.1139 6.25779 29.065 6.15681ZM14.4749 1.54877C14.5391 1.52225 14.6075 1.52225 14.6727 1.54877L26.4091 6.48319L21.4787 8.55671L9.64345 3.58047L14.4749 1.54877ZM7.66988 4.40967L19.5041 9.38592L14.5738 11.4594L2.73851 6.48319L7.66988 4.40967ZM1.68697 22.9877C1.59211 22.9469 1.5299 22.8551 1.5299 22.7521V7.6347C5.62288 9.35532 9.71586 11.0759 13.8088 12.7976V28.0843L1.68697 22.9877ZM27.6177 22.7521C27.6177 22.8551 27.5555 22.9469 27.4616 22.9867L15.3387 28.0833V12.7966C19.4317 11.0759 23.5247 9.35532 27.6177 7.63368V22.7521Z" fill="#100F37"/>
<path d="M2.76804 19.2946L5.04963 20.2533C5.43006 20.4144 5.89209 20.2227 6.0512 19.8443C6.21541 19.4547 6.03182 19.0069 5.64221 18.8427L3.36062 17.884C2.97101 17.7188 2.52224 17.9034 2.35905 18.293C2.19586 18.6826 2.37843 19.1303 2.76804 19.2946Z" fill="#F15A60"/>
<path d="M5.92409 21.3252L3.36203 20.2482C2.97241 20.083 2.52364 20.2676 2.36045 20.6572C2.19625 21.0468 2.37983 21.4945 2.76945 21.6588L5.33151 22.7358C5.71195 22.8969 6.17398 22.7052 6.33309 22.3268C6.49627 21.9372 6.31269 21.4894 5.92409 21.3252Z" fill="#F15A60"/>
<path d="M8.30724 19.9636L7.59329 19.6638C6.68657 19.2833 6.09297 20.6929 6.99969 21.0743L7.71364 21.3742C8.61424 21.7526 9.216 20.3461 8.30724 19.9636Z" fill="#F15A60"/>
<path d="M20.9066 11.895L17.3368 13.3953C17.0533 13.5146 16.8687 13.793 16.8687 14.1V18.4817C16.8687 19.0141 17.4347 19.3945 17.9304 19.1864L21.5002 17.6861C21.7837 17.5668 21.9683 17.2884 21.9683 16.9814V12.5997C21.9683 12.0673 21.4002 11.6899 20.9066 11.895ZM20.4384 16.4734L18.3985 17.3302V14.609L20.4384 13.7512V16.4734Z" fill="#F15A60"/>
</svg>
