<svg width="25" height="24" viewBox="0 0 25 24" fill="none" xmlns="http://www.w3.org/2000/svg">
<path d="M15.6761 15.8766H17.4849C17.7863 15.8766 18.0878 15.4796 18.0878 15.0827V6.74754C18.0878 6.35063 17.7863 5.95371 17.4849 5.95371H15.6761C15.3746 5.95371 15.0732 6.35063 15.0732 6.74754V15.0827C15.0732 15.4796 15.3746 15.8766 15.6761 15.8766ZM20.198 15.8766H22.0068C22.3083 15.8766 22.6098 15.4796 22.6098 15.0827V0.793828C22.6098 0.396914 22.3083 0 22.0068 0H20.198C19.8966 0 19.5951 0.396914 19.5951 0.793828V15.0827C19.5951 15.4796 19.8966 15.8766 20.198 15.8766ZM6.6322 15.8766H8.44098C8.74244 15.8766 9.0439 15.4796 9.0439 15.0827V10.7167C9.0439 10.3198 8.74244 9.92285 8.44098 9.92285H6.6322C6.33073 9.92285 6.02927 10.3198 6.02927 10.7167V15.0827C6.02927 15.4796 6.33073 15.8766 6.6322 15.8766ZM11.1541 15.8766H12.9629C13.2644 15.8766 13.5659 15.4796 13.5659 15.0827V2.7784C13.5659 2.38148 13.2644 1.98457 12.9629 1.98457H11.1541C10.8527 1.98457 10.5512 2.38148 10.5512 2.7784V15.0827C10.5512 15.4796 10.8527 15.8766 11.1541 15.8766ZM23.3634 19.8457H3.01463V0.992285C3.01463 0.444048 2.67737 0 2.26098 0H0.753659C0.337262 0 0 0.444048 0 0.992285V21.8303C0 22.9261 0.674995 23.8148 1.50732 23.8148H23.3634C23.7798 23.8148 24.1171 23.3708 24.1171 22.8226V20.838C24.1171 20.2898 23.7798 19.8457 23.3634 19.8457Z" fill="#F15A60"/>
</svg>
