<svg width="36" height="36" viewBox="0 0 36 36" fill="none" xmlns="http://www.w3.org/2000/svg">
<path d="M19.0837 21.6522V5.13281C19.0837 2.58891 17.0215 0.526642 14.4776 0.526642C11.9337 0.526642 9.87139 2.58891 9.87139 5.13281V21.6522C8.00649 23.0528 6.79993 25.2825 6.79993 27.7943C6.79993 32.0346 10.2373 35.472 14.4776 35.472C18.7178 35.472 22.1552 32.0346 22.1552 27.7943C22.1552 25.2825 20.9486 23.0529 19.0837 21.6522Z" fill="#F1FAFF"/>
<path d="M19.0838 21.6522V5.13281C19.0838 2.58891 17.0215 0.526642 14.4776 0.526642C14.031 0.526642 13.5992 0.590204 13.1908 0.708751C15.1085 1.26563 16.5102 3.03553 16.5102 5.13281V21.6522C18.3751 23.0528 19.5816 25.2825 19.5816 27.7943C19.5816 31.596 16.8184 34.7524 13.1908 35.3645C13.6092 35.4351 14.0391 35.4719 14.4776 35.4719C18.7178 35.4719 22.1552 32.0345 22.1552 27.7943C22.1552 25.2825 20.9487 23.0529 19.0838 21.6522Z" fill="#DCF5FF"/>
<path d="M15.8818 23.2974V5.25438C15.8818 4.47884 15.2532 3.85017 14.4776 3.85017C13.7021 3.85017 13.0734 4.47884 13.0734 5.25438V23.2976C11.1438 23.9148 9.76682 25.7679 9.87771 27.9268C9.99836 30.2757 11.9083 32.1757 14.2578 32.2849C16.9017 32.4078 19.0838 30.3007 19.0838 27.6839C19.0837 25.6298 17.7387 23.8913 15.8818 23.2974Z" fill="#7BA0B0"/>
<path d="M15.8818 22.6213V11.9275H13.0733V22.6216C13.0733 23.0063 12.8524 23.3572 12.5048 23.5222C10.9054 24.2813 9.81261 25.9337 9.87378 27.8356C9.95049 30.2209 11.8738 32.174 14.2577 32.2848C16.9016 32.4077 19.0837 30.3005 19.0837 27.6837C19.0837 25.8436 18.0041 24.2567 16.4441 23.5192C16.0985 23.3558 15.8818 23.0036 15.8818 22.6213Z" fill="#FA4954"/>
<path d="M16.4442 23.5192C16.0985 23.3558 15.8817 23.0036 15.8817 22.6213V11.9275H13.0732V22.271C13.0732 22.3604 13.1398 23.2934 13.5666 23.5192C15.0917 24.3263 16.2061 25.8436 16.2061 27.6837C16.2061 29.7244 14.8791 31.4551 13.0409 32.06C13.4268 32.1877 13.835 32.2652 14.2577 32.2848C16.9015 32.4077 19.0836 30.3005 19.0836 27.6837C19.0837 25.8436 18.0042 24.2568 16.4442 23.5192Z" fill="#FA2A3B"/>
<path d="M24.6605 3.88547H29.1007C29.3919 3.88547 29.628 3.64943 29.628 3.35812C29.628 3.06682 29.392 2.83078 29.1007 2.83078H24.6605C24.3693 2.83078 24.1332 3.06682 24.1332 3.35812C24.1332 3.64943 24.3692 3.88547 24.6605 3.88547Z" fill="black"/>
<path d="M24.6605 8.17031H27.7134C28.0047 8.17031 28.2408 7.93427 28.2408 7.64297C28.2408 7.35173 28.0047 7.11562 27.7134 7.11562H24.6605C24.3693 7.11562 24.1332 7.35166 24.1332 7.64297C24.1332 7.9342 24.3692 8.17031 24.6605 8.17031Z" fill="black"/>
<path d="M29.1007 11.4004H24.6605C24.3693 11.4004 24.1332 11.6364 24.1332 11.9277C24.1332 12.219 24.3692 12.4551 24.6605 12.4551H29.1007C29.3919 12.4551 29.628 12.219 29.628 11.9277C29.628 11.6364 29.3919 11.4004 29.1007 11.4004Z" fill="black"/>
<path d="M24.6605 16.7399H27.7134C28.0047 16.7399 28.2408 16.5038 28.2408 16.2125C28.2408 15.9213 28.0047 15.6852 27.7134 15.6852H24.6605C24.3693 15.6852 24.1332 15.9212 24.1332 16.2125C24.1332 16.5038 24.3692 16.7399 24.6605 16.7399Z" fill="black"/>
<path d="M29.1007 19.9699H24.6605C24.3693 19.9699 24.1332 20.206 24.1332 20.4973C24.1332 20.7885 24.3692 21.0246 24.6605 21.0246H29.1007C29.3919 21.0246 29.628 20.7886 29.628 20.4973C29.628 20.206 29.3919 19.9699 29.1007 19.9699Z" fill="black"/>
<path d="M19.6111 21.3938V5.13331C19.6111 2.3028 17.3083 0 14.4778 0C11.6473 0 9.34445 2.3028 9.34445 5.13331V21.3938C7.75384 22.6694 6.70435 24.4633 6.37888 26.4737C6.33233 26.7612 6.52766 27.032 6.81517 27.0785C7.10197 27.1253 7.37345 26.9298 7.41999 26.6422C7.7158 24.8148 8.69898 23.1924 10.1884 22.0736C10.321 21.974 10.399 21.8178 10.399 21.652V5.13331C10.399 2.88436 12.2287 1.05469 14.4777 1.05469C16.7267 1.05469 18.5563 2.88436 18.5563 5.13331V21.652C18.5563 21.8178 18.6343 21.9741 18.767 22.0737C20.5849 23.4391 21.6276 25.5241 21.6276 27.794C21.6276 33.9132 14.4163 37.1667 9.82159 33.2203C8.54099 32.1204 7.68802 30.6024 7.41992 28.9459C7.37338 28.6583 7.10246 28.4624 6.8151 28.5096C6.52759 28.5561 6.33226 28.8269 6.37881 29.1144C6.68663 31.0162 7.66531 32.7585 9.13442 34.0204C14.4099 38.5514 22.6822 34.8114 22.6822 27.794C22.6824 25.2783 21.5664 22.9606 19.6111 21.3938Z" fill="black"/>
<path d="M15.8819 7.71574C16.1731 7.71574 16.4092 7.4797 16.4092 7.1884V5.2548C16.4092 4.18978 15.5427 3.32332 14.4777 3.32332C13.4127 3.32332 12.5462 4.18978 12.5462 5.2548V22.9279C10.5366 23.7433 9.23845 25.7562 9.3513 27.9534C9.41641 29.2205 9.95233 30.4157 10.8603 31.319C12.8306 33.2794 16.0003 33.3267 18.0217 31.397C19.0466 30.4187 19.611 29.0998 19.611 27.6834C19.611 25.5731 18.3396 23.7081 16.4092 22.9275V9.66058C16.4092 9.36935 16.1731 9.13324 15.8819 9.13324C15.5906 9.13324 15.3545 9.36928 15.3545 9.66058V11.4004H13.6008V5.2548C13.6008 4.77133 13.9942 4.37801 14.4777 4.37801C14.9612 4.37801 15.3546 4.7714 15.3546 5.2548V7.1884C15.3545 7.4797 15.5906 7.71574 15.8819 7.71574ZM15.3545 12.4551V23.2973C15.3545 23.5266 15.5027 23.7296 15.7212 23.7995C17.417 24.342 18.5563 25.9028 18.5563 27.6834C18.5563 28.8089 18.1078 29.8568 17.2935 30.6341C14.7588 33.0537 10.5807 31.328 10.4046 27.8993C10.3095 26.0488 11.4731 24.3629 13.2342 23.7996C13.4526 23.7297 13.6009 23.5266 13.6009 23.2973V12.4551H15.3545Z" fill="black"/>
</svg>
