<svg width="19" height="23" viewBox="0 0 19 23" fill="none" xmlns="http://www.w3.org/2000/svg">
<path fill-rule="evenodd" clip-rule="evenodd" d="M5.54841 0.638579C5.54845 0.469378 5.61784 0.307113 5.74133 0.18744C5.86482 0.0677675 6.03232 0.000478451 6.20701 0.000359383L12.7926 0C12.9673 0.000392355 13.1347 0.0678677 13.2582 0.187637C13.3817 0.307405 13.451 0.469696 13.4512 0.638938V2.2165H5.54841V0.638579ZM16.3764 22.0867C16.3596 22.3354 16.2452 22.5686 16.0568 22.7383C15.8684 22.9081 15.62 23.0017 15.3627 23H3.56121C3.30392 22.9993 3.05642 22.9044 2.8684 22.7343C2.68039 22.5641 2.56579 22.3314 2.54762 22.0828L1.53773 7.77408H17.4542L16.3766 22.0865L16.3764 22.0867ZM19 6.47815H0V4.99569C0.000282454 4.60252 0.161641 4.22552 0.448646 3.94747C0.735652 3.66943 1.12485 3.51306 1.53078 3.5127L17.469 3.51221C17.8749 3.51281 18.264 3.66932 18.5509 3.94739C18.8379 4.22547 18.9992 4.60242 18.9996 4.99556V6.47801L19 6.47815ZM6.44072 19.5889C6.44072 19.674 6.45802 19.7583 6.49163 19.8369C6.52525 19.9155 6.57452 19.9869 6.63663 20.0471C6.69875 20.1072 6.77248 20.1549 6.85364 20.1875C6.93479 20.2201 7.02177 20.2368 7.10961 20.2368C7.19745 20.2368 7.28443 20.2201 7.36559 20.1875C7.44674 20.1549 7.52048 20.1072 7.58259 20.0471C7.6447 19.9869 7.69397 19.9155 7.72759 19.8369C7.76121 19.7583 7.77851 19.674 7.77851 19.5889V10.5034C7.7771 10.3326 7.70605 10.1691 7.58083 10.0488C7.45562 9.92842 7.28637 9.86086 7.10996 9.8608C6.93355 9.86074 6.76425 9.92819 6.63895 10.0485C6.51364 10.1687 6.44248 10.3321 6.44095 10.503V19.5889H6.44072ZM11.2132 19.5889C11.2132 19.7608 11.2837 19.9256 11.4092 20.0471C11.5346 20.1686 11.7048 20.2369 11.8822 20.2369C12.0596 20.2369 12.2298 20.1686 12.3553 20.0471C12.4807 19.9256 12.5512 19.7608 12.5512 19.5889V10.5034C12.5498 10.3325 12.4787 10.1691 12.3535 10.0487C12.2283 9.92834 12.059 9.86077 11.8826 9.86071C11.7061 9.86065 11.5368 9.92811 11.4115 10.0484C11.2862 10.1687 11.215 10.3321 11.2135 10.503L11.2132 19.5889Z" fill="#F15A60"/>
</svg>
