<svg width="25" height="16" viewBox="0 0 25 16" fill="none" xmlns="http://www.w3.org/2000/svg">
<path d="M12.5 16C4.32168 16 0.266992 8.6992 0.0984375 8.3886C-0.0328125 8.1468 -0.0328125 7.853 0.0984375 7.6112C0.266992 7.3008 4.32168 0 12.5 0C20.6783 0 24.733 7.3008 24.9016 7.6114C25.0328 7.8532 25.0328 8.147 24.9016 8.3888C24.733 8.6992 20.6783 16 12.5 16ZM1.70059 7.9988C2.62988 9.441 6.27852 14.4 12.5 14.4C18.7412 14.4 22.3736 9.445 23.2994 8.0012C22.3701 6.559 18.7215 1.6 12.5 1.6C6.25879 1.6 2.62637 6.555 1.70059 7.9988ZM12.5 12.8C9.91523 12.8 7.8125 10.6468 7.8125 8C7.8125 5.3532 9.91523 3.2 12.5 3.2C15.0848 3.2 17.1875 5.3532 17.1875 8C17.1875 10.6468 15.0848 12.8 12.5 12.8ZM12.5 4.8C10.777 4.8 9.375 6.2356 9.375 8C9.375 9.7644 10.777 11.2 12.5 11.2C14.223 11.2 15.625 9.7644 15.625 8C15.625 6.2356 14.223 4.8 12.5 4.8Z" fill="#0D99FF"/>
</svg>
