<svg width="21" height="21" viewBox="0 0 21 21" fill="none" xmlns="http://www.w3.org/2000/svg">
<path d="M5.1211 5.25C3.99311 5.25 2.96595 5.91698 2.50783 6.94775L0.0644758 12.4453C0.00731849 12.5564 0 12.6435 0 12.75V18.7499C0 19.9835 1.01647 20.9999 2.24999 20.9999H18.7499C19.9834 20.9999 20.9999 19.9835 20.9999 18.7499V12.75C20.9999 12.6447 20.9719 12.5361 20.9351 12.4453C20.1196 10.6136 19.3059 8.7803 18.4917 6.94773C18.034 5.91698 17.0069 5.25 15.8789 5.25H14.25C13.8358 5.25 13.5 5.58578 13.5 6C13.5 6.41421 13.8358 6.74999 14.25 6.74999H15.8789C16.4179 6.74999 16.9021 7.0645 17.121 7.55712L19.0957 12H15.6005C14.8509 12 14.1666 12.4429 13.8589 13.1264L13.1235 14.7583C13.0565 14.9071 12.9132 15 12.75 15H8.24999C8.08673 15 7.94348 14.9071 7.87646 14.7583L7.14111 13.1264C6.83337 12.4429 6.14907 12 5.39942 12H1.90431L3.87891 7.55712C4.09785 7.06451 4.58202 6.74999 5.1211 6.74999H6.75C7.16421 6.74999 7.49999 6.41421 7.49999 6C7.49999 5.58578 7.16421 5.25 6.75 5.25H5.1211ZM1.50002 13.5H5.39942C5.56268 13.5 5.70593 13.5928 5.77295 13.7417L6.5083 15.3735C6.81604 16.0571 7.50034 16.5 8.24999 16.5H12.75C13.4996 16.5 14.1839 16.0571 14.4917 15.3735L15.227 13.7417C15.294 13.5928 15.4373 13.5 15.6005 13.5H19.4999V18.7499C19.4999 19.1784 19.1784 19.4999 18.75 19.4999H2.25001C1.82154 19.4999 1.50002 19.1784 1.50002 18.7499V13.5Z" fill="#14AE5C"/>
<path d="M10.522 0.00030876C10.4198 -0.0026235 10.3181 0.0153557 10.2232 0.0531402C10.1282 0.0909247 10.0419 0.147717 9.96972 0.220034L7.71973 2.47003C7.57912 2.61067 7.50012 2.80141 7.50012 3.0003C7.50012 3.19918 7.57912 3.38992 7.71973 3.53057C7.86038 3.67119 8.05112 3.75018 8.25 3.75018C8.44889 3.75018 8.63963 3.67119 8.78028 3.53057L9.75 2.56085V12.0003C9.75 12.1992 9.82902 12.3899 9.96967 12.5306C10.1103 12.6712 10.3011 12.7503 10.5 12.7503C10.6989 12.7503 10.8897 12.6712 11.0303 12.5306C11.171 12.3899 11.25 12.1992 11.25 12.0003V2.56085L12.2197 3.53057C12.3604 3.67119 12.5511 3.75018 12.75 3.75018C12.9489 3.75018 13.1396 3.67119 13.2803 3.53057C13.4209 3.38992 13.4999 3.19918 13.4999 3.0003C13.4999 2.80141 13.4209 2.61067 13.2803 2.47003L11.0303 0.220034C10.8951 0.0846404 10.7132 0.00603656 10.522 0.00030876Z" fill="#14AE5C"/>
</svg>
