<svg width="24" height="25" viewBox="0 0 24 25" fill="none" xmlns="http://www.w3.org/2000/svg">
<path d="M19.7006 2.74796H18.2877V2.6277C18.2877 1.75841 17.5805 1.05127 16.7114 1.05127C15.8431 1.05127 15.1363 1.75844 15.1363 2.6277V2.74796H8.32843V2.57517C8.32843 1.70662 7.62166 1 6.75326 1C5.88416 1 5.17702 1.70662 5.17702 2.57517V2.74796H4.01014C2.35021 2.74796 1 4.18112 1 5.94285V20.8051C1 22.5668 2.35017 24 4.01014 24H19.7006C21.3598 24 22.7096 22.5668 22.7096 20.8051V5.94285C22.7096 4.18112 21.3598 2.74796 19.7006 2.74796ZM15.8782 2.6277C15.8782 2.16762 16.2521 1.7932 16.7114 1.7932C17.1715 1.7932 17.5458 2.16762 17.5458 2.6277V3.76271C17.5458 4.22278 17.1715 4.5972 16.7114 4.5972C16.2521 4.5972 15.8782 4.22278 15.8782 3.76271V2.6277ZM5.91896 2.57517C5.91896 2.1158 6.29319 1.74194 6.75326 1.74194C7.21263 1.74194 7.58649 2.1158 7.58649 2.57517V3.71144C7.58649 4.17081 7.21263 4.54467 6.75326 4.54467C6.29319 4.54467 5.91896 4.17081 5.91896 3.71144V2.57517ZM21.9677 20.8051C21.9677 22.1577 20.9508 23.2581 19.7006 23.2581H4.01014C2.75957 23.2581 1.74194 22.1577 1.74194 20.8051V7.25645H21.9677V20.8051ZM21.9677 6.51451H1.74197V5.94285C1.74197 4.5903 2.75961 3.4899 4.01018 3.4899H5.17706V3.71144C5.17706 4.57999 5.88423 5.28661 6.7533 5.28661C7.62166 5.28661 8.32847 4.57999 8.32847 3.71144V3.4899H15.1363V3.76271C15.1363 4.632 15.8431 5.33914 16.7115 5.33914C17.5806 5.33914 18.2877 4.63196 18.2877 3.76271V3.4899H19.7006C20.9508 3.4899 21.9677 4.5903 21.9677 5.94285L21.9677 6.51451Z" fill="#F15A60" stroke="#F15A60" stroke-width="0.8"/>
<path d="M4.22534 21.429H8.04044H19.4857C19.6908 21.429 19.8567 21.2629 19.8567 21.058V9.61218C19.8567 9.40733 19.6908 9.24121 19.4857 9.24121H4.22534C4.0203 9.24121 3.85437 9.40733 3.85437 9.61218V21.058C3.85437 21.2629 4.0203 21.429 4.22534 21.429ZM19.1148 16.8718H16.0416V13.7984H19.1148V16.8718ZM15.2997 16.8718H12.2265V13.7984H15.2997V16.8718ZM11.4846 16.8718H8.41141V13.7984H11.4846V16.8718ZM7.66948 16.8718H4.59631V13.7984H7.66948V16.8718ZM4.59631 17.6137H7.66948V20.6871H4.59631V17.6137ZM8.41141 17.6137H11.4846V20.6871H8.41141V17.6137ZM12.2265 17.6137H15.2997V20.6871H12.2265V17.6137ZM19.1148 20.6871H16.0416V17.6137H19.1148V20.6871ZM19.1148 13.0565H16.0416V9.98315H19.1148V13.0565ZM15.2997 13.0565H12.2265V9.98315H15.2997V13.0565ZM11.4846 13.0565H8.41141V9.98315H11.4846V13.0565ZM4.59631 9.98315H7.66948V13.0565H4.59631V9.98315Z" fill="#F15A60" stroke="#F15A60" stroke-width="0.8"/>
</svg>
